<svg xmlns="http://www.w3.org/2000/svg" version="1.1" id="Layer_1" x="0px" y="0px" viewBox="0 604.2 711.9 168.7" enable-background="new 0 604.2 711.9 168.7">
  <g>
    <path fill="#333333" d="M262.6,742.8h-18.4c-8.9,0-15.8-2.4-20.6-7.1c-4.8-4.7-7.3-11.5-7.3-20.4v-53.5c0-8.9,2.4-15.7,7.3-20.4 c4.8-4.7,11.7-7.1,20.6-7.1h18.4c8.8,0,15.6,2.4,20.5,7.2c4.9,4.8,7.3,11.6,7.3,20.3v7.9c0,2.5-1.2,3.7-3.7,3.7h-14.2 c-2.4,0-3.5-1.2-3.5-3.7v-6.9c0-3.6-0.8-6.2-2.3-7.7s-4.1-2.3-7.7-2.3h-11.5c-3.5,0-6,0.8-7.5,2.3s-2.3,4.1-2.3,7.7v51.5 c0,3.6,0.8,6.2,2.3,7.7s4,2.3,7.5,2.3h11.5c3.6,0,6.2-0.8,7.7-2.3s2.3-4.1,2.3-7.7v-6.9c0-2.5,1.2-3.7,3.5-3.7h14.2 c2.5,0,3.7,1.2,3.7,3.7v7.9c0,8.8-2.4,15.6-7.3,20.3C278.2,740.5,271.4,742.8,262.6,742.8z"/>
    <path fill="#333333" d="M338.2,742.8h-5.6c-8.7,0-15.2-2.4-19.7-7.1c-4.4-4.7-6.7-11.5-6.7-20.4v-55c0-2.4,1.2-3.5,3.5-3.5h14.3 c2.4,0,3.5,1.2,3.5,3.5v54c0,3.6,0.8,6.2,2.3,7.7s4,2.3,7.5,2.3h6.2c7.8,0,11.6-4.3,11.6-12.8v-51.1c0-2.4,1.2-3.5,3.5-3.5h14.2 c2.5,0,3.7,1.2,3.7,3.5v79c0,2.4-1.2,3.5-3.7,3.5H359c-2.4,0-3.5-1.2-3.5-3.5v-5.6h-0.7c-1.2,3-3.4,5.3-6.6,6.8 C345,742.1,341.7,742.8,338.2,742.8z"/>
    <path fill="#333333" d="M413.3,742.8H399c-2.4,0-3.5-1.2-3.5-3.5v-79c0-2.4,1.2-3.5,3.5-3.5h14.3c2.4,0,3.5,1.2,3.5,3.5v5.7h0.7 c1.2-3,3.4-5.3,6.6-6.9c3.1-1.6,6.5-2.4,10-2.4h6.1c2.3,0,3.4,1.2,3.4,3.5V672c0,1.3-0.3,2.3-0.8,2.8c-0.5,0.5-1.4,0.7-2.6,0.6 h-11.6c-7.8,0-11.6,4.4-11.6,13.2v50.8C416.9,741.7,415.7,742.8,413.3,742.8z"/>
    <path fill="#333333" d="M486.9,742.8h-32.1c-2.3,0-3.4-1.2-3.4-3.5v-10.8c0-1.2,0.2-2.1,0.7-2.6c0.4-0.5,1.4-0.8,2.7-0.8H483 c5.5,0,8.3-1.7,8.3-5.1v-0.8c0-2.7-2.3-5.3-6.9-7.8l-16.7-9.3c-5.7-2.9-10-6.1-12.7-9.5c-2.7-3.4-4.1-7.7-4.1-13 c0-7.9,2.1-13.7,6.2-17.4c4.2-3.7,10.7-5.6,19.6-5.6H505c2.2,0,3.4,1.2,3.4,3.5v11c0,1.2-0.2,2.1-0.7,2.6c-0.5,0.5-1.4,0.8-2.7,0.8 h-23.5c-5.5,0-8.3,1.4-8.3,4.2v0.8c0,2.5,2.4,5,7.3,7.6l17,10.1c5.8,3.2,10,6.4,12.3,9.7c2.4,3.3,3.5,7.7,3.5,13.1 C513.4,735.3,504.6,742.8,486.9,742.8z"/>
    <path fill="#333333" d="M559.3,742.8h-5.6c-8.7,0-15.2-2.4-19.7-7.1c-4.4-4.7-6.7-11.5-6.7-20.4v-55c0-2.4,1.2-3.5,3.5-3.5h14.3 c2.4,0,3.5,1.2,3.5,3.5v54c0,3.6,0.8,6.2,2.3,7.7s4,2.3,7.5,2.3h6.2c7.8,0,11.6-4.3,11.6-12.8v-51.1c0-2.4,1.2-3.5,3.5-3.5h14.2 c2.5,0,3.7,1.2,3.7,3.5v79c0,2.4-1.2,3.5-3.7,3.5H580c-2.4,0-3.5-1.2-3.5-3.5v-5.6h-0.7c-1.2,3-3.4,5.3-6.6,6.8 C566.1,742.1,562.8,742.8,559.3,742.8z"/>
    <path fill="#333333" d="M649.1,742.8H617c-2.3,0-3.4-1.2-3.4-3.5v-10.8c0-1.2,0.2-2.1,0.7-2.6c0.4-0.5,1.4-0.8,2.7-0.8h28.2 c5.5,0,8.3-1.7,8.3-5.1v-0.8c0-2.7-2.3-5.3-6.9-7.8l-16.7-9.3c-5.7-2.9-10-6.1-12.7-9.5c-2.7-3.4-4.1-7.7-4.1-13 c0-7.9,2.1-13.7,6.2-17.4c4.2-3.7,10.7-5.6,19.6-5.6h28.2c2.2,0,3.4,1.2,3.4,3.5v11c0,1.2-0.2,2.1-0.7,2.6 c-0.5,0.5-1.4,0.8-2.7,0.8h-23.5c-5.5,0-8.3,1.4-8.3,4.2v0.8c0,2.5,2.4,5,7.3,7.6l17,10.1c5.8,3.2,10,6.4,12.3,9.7 c2.4,3.3,3.5,7.7,3.5,13.1C675.6,735.3,666.7,742.8,649.1,742.8z"/>
  </g>
  <g transform="matrix(0.430852, 0, 0, 0.421613, 0.060727, 604.200684)" style="">
    <path id="path0" d="M0.000 200.000 L 0.000 400.000 200.000 400.000 L 400.000 400.000 400.000 200.000 L 400.000 0.000 200.000 0.000 L 0.000 0.000 0.000 200.000 M104.000 186.200 L 104.200 265.400 149.000 265.600 L 193.800 265.800 193.905 279.501 L 194.011 293.203 134.105 293.101 L 74.200 293.000 74.097 200.400 C 74.041 149.470,74.081 107.573,74.187 107.295 C 74.338 106.898,77.535 106.813,89.089 106.895 L 103.800 107.000 104.000 186.200 M330.600 120.600 L 330.600 134.200 278.200 134.200 L 225.800 134.200 225.695 120.499 L 225.589 106.797 278.095 106.899 L 330.600 107.000 330.600 120.600 M330.705 196.100 L 330.811 209.600 278.205 209.600 L 225.600 209.600 225.600 196.267 C 225.600 188.933,225.721 182.813,225.868 182.665 C 226.016 182.518,249.641 182.443,278.368 182.499 L 330.600 182.600 330.705 196.100 M330.600 279.400 L 330.600 293.000 278.100 293.101 L 225.600 293.203 225.600 279.400 L 225.600 265.597 278.100 265.699 L 330.600 265.800 330.600 279.400 " stroke="none" fill="#b4e3f3" fill-rule="evenodd"/>
    <path id="path1" d="M74.987 108.095 C 74.881 108.373,74.841 149.910,74.897 200.400 L 75.000 292.200 134.200 292.200 L 193.400 292.200 193.400 279.400 L 193.400 266.600 148.400 266.400 L 103.400 266.200 103.200 187.000 L 103.000 107.800 89.089 107.695 C 78.175 107.612,75.138 107.698,74.987 108.095 M226.000 120.600 L 226.000 133.603 278.100 133.501 L 330.200 133.400 330.200 120.600 L 330.200 107.800 278.100 107.699 L 226.000 107.597 226.000 120.600 M226.000 196.200 L 226.000 209.200 277.957 209.200 C 324.966 209.200,329.938 209.140,330.157 208.567 C 330.291 208.219,330.400 202.369,330.400 195.567 L 330.400 183.200 278.200 183.200 L 226.000 183.200 226.000 196.200 M226.000 279.135 L 226.000 291.869 244.900 292.134 C 268.598 292.466,328.919 292.483,329.767 292.157 C 330.728 291.788,330.728 267.012,329.767 266.643 C 329.419 266.509,305.929 266.400,277.567 266.400 L 226.000 266.400 226.000 279.135 " stroke="none" fill="#050505" fill-rule="evenodd"/>
    <path id="path2" d="M103.796 186.800 C 103.796 230.250,103.843 248.025,103.900 226.300 C 103.957 204.575,103.957 169.025,103.900 147.300 C 103.843 125.575,103.796 143.350,103.796 186.800 M330.578 120.600 C 330.579 127.640,330.633 130.464,330.699 126.875 C 330.766 123.286,330.766 117.526,330.699 114.075 C 330.633 110.624,330.578 113.560,330.578 120.600 M225.941 133.702 C 226.107 133.867,249.633 133.957,278.222 133.901 L 330.200 133.800 277.920 133.600 C 249.166 133.490,225.776 133.536,225.941 133.702 M330.578 195.800 C 330.579 202.840,330.633 205.664,330.699 202.075 C 330.766 198.486,330.766 192.726,330.699 189.275 C 330.633 185.824,330.578 188.760,330.578 195.800 M193.094 266.290 C 193.465 266.552,193.617 269.840,193.703 279.420 L 193.817 292.200 193.809 279.233 C 193.801 268.052,193.717 266.244,193.200 266.103 C 192.762 265.983,192.733 266.034,193.094 266.290 M330.578 279.400 C 330.579 286.440,330.633 289.264,330.699 285.675 C 330.766 282.086,330.766 276.326,330.699 272.875 C 330.633 269.424,330.578 272.360,330.578 279.400 M225.948 292.509 C 226.118 292.678,229.844 292.768,234.229 292.708 L 242.200 292.598 233.919 292.399 C 229.365 292.290,225.778 292.339,225.948 292.509 " stroke="none" fill="#6c848f" fill-rule="evenodd"/>
    <path id="path3" d="M74.187 107.295 C 74.081 107.573,74.041 149.470,74.097 200.400 L 74.200 293.000 134.100 293.101 C 190.972 293.197,193.998 293.167,193.968 292.501 C 193.950 292.083,193.855 292.002,193.735 292.300 C 193.575 292.697,181.246 292.800,133.967 292.800 L 74.400 292.800 74.400 200.000 L 74.400 107.200 88.967 107.200 C 98.516 107.200,103.603 107.341,103.737 107.610 C 103.849 107.836,103.894 107.791,103.837 107.510 C 103.686 106.766,74.468 106.554,74.187 107.295 M277.777 107.099 C 319.044 107.181,330.230 107.309,330.508 107.701 C 330.768 108.069,330.818 108.043,330.697 107.600 C 330.553 107.071,324.352 107.000,277.967 106.998 L 225.400 106.996 277.777 107.099 M330.150 133.610 C 329.892 133.868,311.691 133.970,277.715 133.903 C 249.094 133.846,225.760 133.935,225.862 134.100 C 226.169 134.597,330.309 134.471,330.616 133.973 C 330.978 133.388,330.638 133.122,330.150 133.610 M244.600 182.696 C 294.268 182.970,330.706 182.971,330.538 182.700 C 330.436 182.535,306.828 182.443,278.076 182.496 C 249.324 182.549,234.260 182.639,244.600 182.696 M104.000 265.697 C 104.000 265.860,124.241 266.040,148.980 266.097 C 173.719 266.153,193.827 266.067,193.664 265.903 C 193.275 265.515,104.000 265.309,104.000 265.697 M225.600 265.899 C 225.600 266.064,249.124 266.154,277.875 266.097 C 319.497 266.015,330.222 266.097,330.505 266.497 C 330.770 266.872,330.819 266.847,330.697 266.400 C 330.519 265.746,225.600 265.246,225.600 265.899 M330.400 292.336 C 330.400 292.694,317.903 292.781,278.000 292.703 C 249.180 292.646,225.600 292.735,225.600 292.900 C 225.600 293.397,330.309 293.271,330.616 292.773 C 330.761 292.539,330.772 292.239,330.640 292.107 C 330.508 291.975,330.400 292.078,330.400 292.336 " stroke="none" fill="#8cb4c4" fill-rule="evenodd"/>
    <path id="path4" d="M74.587 107.695 C 74.481 107.973,74.441 149.690,74.497 200.400 L 74.600 292.600 134.100 292.701 C 166.825 292.757,193.600 292.667,193.600 292.501 C 193.600 292.336,166.915 292.200,134.300 292.200 L 75.000 292.200 75.000 200.000 L 75.000 107.800 89.000 107.800 L 103.000 107.800 103.200 187.000 L 103.400 266.200 148.200 266.203 L 193.000 266.207 148.400 266.003 L 103.800 265.800 103.600 186.600 L 103.400 107.400 89.089 107.295 C 77.855 107.212,74.738 107.298,74.587 107.695 M244.600 107.496 C 294.287 107.770,330.400 107.771,330.400 107.500 C 330.400 107.335,306.865 107.243,278.100 107.296 C 249.335 107.349,234.260 107.439,244.600 107.496 M225.778 120.600 C 225.779 127.640,225.833 130.464,225.899 126.875 C 225.966 123.286,225.966 117.526,225.899 114.075 C 225.833 110.624,225.778 113.560,225.778 120.600 M225.782 183.303 C 225.675 183.580,225.636 189.565,225.694 196.603 L 225.800 209.400 277.500 209.402 L 329.200 209.405 277.600 209.301 L 226.000 209.197 226.000 196.200 L 226.000 183.203 278.300 183.100 L 330.600 182.997 278.287 182.899 C 236.542 182.820,225.936 182.902,225.782 183.303 M240.400 266.294 C 278.009 266.563,330.277 266.570,329.862 266.306 C 329.608 266.144,306.090 266.052,277.600 266.101 C 249.110 266.150,232.370 266.237,240.400 266.294 M225.800 279.500 L 225.800 292.200 235.000 292.447 C 248.412 292.808,329.920 292.853,330.138 292.500 C 330.240 292.335,318.236 292.258,303.462 292.328 C 288.688 292.399,265.217 292.332,251.306 292.180 L 226.011 291.904 225.906 279.352 L 225.800 266.800 225.800 279.500 " stroke="none" fill="#5c747e" fill-rule="evenodd"/>
  </g>
</svg>